<svg xmlns="http://www.w3.org/2000/svg" width="64" height="64" viewBox="0 0 64 64" role="img" aria-label="Matthew Corbett">
  <rect width="64" height="64" rx="14" fill="#0f1419"/>
  <!-- M -->
  <path fill="#4a7c59" d="M12 46V18h5.2l5.9 16.6L29 18h5.2v28H29.4V28.4L24.2 43.2h-3.2L15.8 28.4V46H12z"/>
  <!-- C -->
  <path fill="#4a7c59" d="M48.8 25.2c-1.1-1.5-2.7-2.7-4.7-3.4-1.9-.7-4-.7-5.9 0-2 .7-3.6 1.9-4.7 3.4-1.2 1.6-1.8 3.5-1.8 5.6v2.4c0 2.1.6 4 1.8 5.6 1.1 1.5 2.7 2.7 4.7 3.4 1.9.7 4 .7 5.9 0 2-.7 3.6-1.9 4.7-3.4l-3.6-2.5c-.6.9-1.5 1.6-2.5 2-1 .4-2.1.4-3.1 0-1-.4-1.8-1.1-2.4-2-.6-.9-.9-1.9-.9-3.1v-2.4c0-1.2.3-2.2.9-3.1.6-.9 1.4-1.6 2.4-2 1-.4 2.1-.4 3.1 0 1 .4 1.9 1.1 2.5 2l3.6-2.5z"/>
  <rect x="18" y="50" width="28" height="3" rx="1.5" fill="#c4a35a"/>
</svg>
